<svg width="1024" height="1024" viewBox="0 0 1024 1024" xmlns="http://www.w3.org/2000/svg">
  <!-- Flat black Apple-style squircle (continuous-corner superellipse) -->
  <path d="M 924.000 512.000 L 923.994 573.835 L 923.975 593.590 L 923.944 607.954 L 923.900 619.653 L 923.843 629.698 L 923.774 638.595 L 923.692 646.638 L 923.598 654.014 L 923.492 660.852 L 923.372 667.244 L 923.240 673.260 L 923.096 678.952 L 922.939 684.362 L 922.769 689.523 L 922.586 694.464 L 922.391 699.206 L 922.184 703.769 L 921.963 708.169 L 921.730 712.420 L 921.485 716.534 L 921.226 720.521 L 920.955 724.391 L 920.671 728.152 L 920.375 731.811 L 920.065 735.374 L 919.743 738.847 L 919.408 742.235 L 919.060 745.543 L 918.700 748.776 L 918.326 751.936 L 917.940 755.028 L 917.540 758.055 L 917.128 761.020 L 916.702 763.925 L 916.264 766.773 L 915.812 769.567 L 915.348 772.308 L 914.870 774.999 L 914.379 777.641 L 913.876 780.237 L 913.358 782.787 L 912.828 785.293 L 912.284 787.758 L 911.727 790.181 L 911.157 792.565 L 910.573 794.910 L 909.975 797.218 L 909.365 799.490 L 908.740 801.726 L 908.102 803.929 L 907.451 806.097 L 906.786 808.233 L 906.107 810.338 L 905.414 812.411 L 904.707 814.454 L 903.987 816.467 L 903.252 818.452 L 902.503 820.408 L 901.741 822.336 L 900.964 824.238 L 900.173 826.112 L 899.368 827.961 L 898.548 829.783 L 897.714 831.581 L 896.865 833.354 L 896.002 835.103 L 895.124 836.828 L 894.232 838.529 L 893.324 840.207 L 892.402 841.863 L 891.465 843.496 L 890.513 845.108 L 889.545 846.697 L 888.562 848.266 L 887.564 849.813 L 886.550 851.339 L 885.521 852.845 L 884.476 854.331 L 883.415 855.796 L 882.338 857.242 L 881.246 858.669 L 880.137 860.076 L 879.012 861.464 L 877.870 862.834 L 876.712 864.185 L 875.537 865.517 L 874.345 866.831 L 873.136 868.128 L 871.910 869.406 L 870.667 870.667 L 869.406 871.910 L 868.128 873.136 L 866.831 874.345 L 865.517 875.537 L 864.185 876.712 L 862.834 877.870 L 861.464 879.012 L 860.076 880.137 L 858.669 881.246 L 857.242 882.338 L 855.796 883.415 L 854.331 884.476 L 852.845 885.521 L 851.339 886.550 L 849.813 887.564 L 848.266 888.562 L 846.697 889.545 L 845.108 890.513 L 843.496 891.465 L 841.863 892.402 L 840.207 893.324 L 838.529 894.232 L 836.828 895.124 L 835.103 896.002 L 833.354 896.865 L 831.581 897.714 L 829.783 898.548 L 827.961 899.368 L 826.112 900.173 L 824.238 900.964 L 822.336 901.741 L 820.408 902.503 L 818.452 903.252 L 816.467 903.987 L 814.454 904.707 L 812.411 905.414 L 810.338 906.107 L 808.233 906.786 L 806.097 907.451 L 803.929 908.102 L 801.726 908.740 L 799.490 909.365 L 797.218 909.975 L 794.910 910.573 L 792.565 911.157 L 790.181 911.727 L 787.758 912.284 L 785.293 912.828 L 782.787 913.358 L 780.237 913.876 L 777.641 914.379 L 774.999 914.870 L 772.308 915.348 L 769.567 915.812 L 766.773 916.264 L 763.925 916.702 L 761.020 917.128 L 758.055 917.540 L 755.028 917.940 L 751.936 918.326 L 748.776 918.700 L 745.543 919.060 L 742.235 919.408 L 738.847 919.743 L 735.374 920.065 L 731.811 920.375 L 728.152 920.671 L 724.391 920.955 L 720.521 921.226 L 716.534 921.485 L 712.420 921.730 L 708.169 921.963 L 703.769 922.184 L 699.206 922.391 L 694.464 922.586 L 689.523 922.769 L 684.362 922.939 L 678.952 923.096 L 673.260 923.240 L 667.244 923.372 L 660.852 923.492 L 654.014 923.598 L 646.638 923.692 L 638.595 923.774 L 629.698 923.843 L 619.653 923.900 L 607.954 923.944 L 593.590 923.975 L 573.835 923.994 L 512.000 924.000 L 450.165 923.994 L 430.410 923.975 L 416.046 923.944 L 404.347 923.900 L 394.302 923.843 L 385.405 923.774 L 377.362 923.692 L 369.986 923.598 L 363.148 923.492 L 356.756 923.372 L 350.740 923.240 L 345.048 923.096 L 339.638 922.939 L 334.477 922.769 L 329.536 922.586 L 324.794 922.391 L 320.231 922.184 L 315.831 921.963 L 311.580 921.730 L 307.466 921.485 L 303.479 921.226 L 299.609 920.955 L 295.848 920.671 L 292.189 920.375 L 288.626 920.065 L 285.153 919.743 L 281.765 919.408 L 278.457 919.060 L 275.224 918.700 L 272.064 918.326 L 268.972 917.940 L 265.945 917.540 L 262.980 917.128 L 260.075 916.702 L 257.227 916.264 L 254.433 915.812 L 251.692 915.348 L 249.001 914.870 L 246.359 914.379 L 243.763 913.876 L 241.213 913.358 L 238.707 912.828 L 236.242 912.284 L 233.819 911.727 L 231.435 911.157 L 229.090 910.573 L 226.782 909.975 L 224.510 909.365 L 222.274 908.740 L 220.071 908.102 L 217.903 907.451 L 215.767 906.786 L 213.662 906.107 L 211.589 905.414 L 209.546 904.707 L 207.533 903.987 L 205.548 903.252 L 203.592 902.503 L 201.664 901.741 L 199.762 900.964 L 197.888 900.173 L 196.039 899.368 L 194.217 898.548 L 192.419 897.714 L 190.646 896.865 L 188.897 896.002 L 187.172 895.124 L 185.471 894.232 L 183.793 893.324 L 182.137 892.402 L 180.504 891.465 L 178.892 890.513 L 177.303 889.545 L 175.734 888.562 L 174.187 887.564 L 172.661 886.550 L 171.155 885.521 L 169.669 884.476 L 168.204 883.415 L 166.758 882.338 L 165.331 881.246 L 163.924 880.137 L 162.536 879.012 L 161.166 877.870 L 159.815 876.712 L 158.483 875.537 L 157.169 874.345 L 155.872 873.136 L 154.594 871.910 L 153.333 870.667 L 152.090 869.406 L 150.864 868.128 L 149.655 866.831 L 148.463 865.517 L 147.288 864.185 L 146.130 862.834 L 144.988 861.464 L 143.863 860.076 L 142.754 858.669 L 141.662 857.242 L 140.585 855.796 L 139.524 854.331 L 138.479 852.845 L 137.450 851.339 L 136.436 849.813 L 135.438 848.266 L 134.455 846.697 L 133.487 845.108 L 132.535 843.496 L 131.598 841.863 L 130.676 840.207 L 129.768 838.529 L 128.876 836.828 L 127.998 835.103 L 127.135 833.354 L 126.286 831.581 L 125.452 829.783 L 124.632 827.961 L 123.827 826.112 L 123.036 824.238 L 122.259 822.336 L 121.497 820.408 L 120.748 818.452 L 120.013 816.467 L 119.293 814.454 L 118.586 812.411 L 117.893 810.338 L 117.214 808.233 L 116.549 806.097 L 115.898 803.929 L 115.260 801.726 L 114.635 799.490 L 114.025 797.218 L 113.427 794.910 L 112.843 792.565 L 112.273 790.181 L 111.716 787.758 L 111.172 785.293 L 110.642 782.787 L 110.124 780.237 L 109.621 777.641 L 109.130 774.999 L 108.652 772.308 L 108.188 769.567 L 107.736 766.773 L 107.298 763.925 L 106.872 761.020 L 106.460 758.055 L 106.060 755.028 L 105.674 751.936 L 105.300 748.776 L 104.940 745.543 L 104.592 742.235 L 104.257 738.847 L 103.935 735.374 L 103.625 731.811 L 103.329 728.152 L 103.045 724.391 L 102.774 720.521 L 102.515 716.534 L 102.270 712.420 L 102.037 708.169 L 101.816 703.769 L 101.609 699.206 L 101.414 694.464 L 101.231 689.523 L 101.061 684.362 L 100.904 678.952 L 100.760 673.260 L 100.628 667.244 L 100.508 660.852 L 100.402 654.014 L 100.308 646.638 L 100.226 638.595 L 100.157 629.698 L 100.100 619.653 L 100.056 607.954 L 100.025 593.590 L 100.006 573.835 L 100.000 512.000 L 100.006 450.165 L 100.025 430.410 L 100.056 416.046 L 100.100 404.347 L 100.157 394.302 L 100.226 385.405 L 100.308 377.362 L 100.402 369.986 L 100.508 363.148 L 100.628 356.756 L 100.760 350.740 L 100.904 345.048 L 101.061 339.638 L 101.231 334.477 L 101.414 329.536 L 101.609 324.794 L 101.816 320.231 L 102.037 315.831 L 102.270 311.580 L 102.515 307.466 L 102.774 303.479 L 103.045 299.609 L 103.329 295.848 L 103.625 292.189 L 103.935 288.626 L 104.257 285.153 L 104.592 281.765 L 104.940 278.457 L 105.300 275.224 L 105.674 272.064 L 106.060 268.972 L 106.460 265.945 L 106.872 262.980 L 107.298 260.075 L 107.736 257.227 L 108.188 254.433 L 108.652 251.692 L 109.130 249.001 L 109.621 246.359 L 110.124 243.763 L 110.642 241.213 L 111.172 238.707 L 111.716 236.242 L 112.273 233.819 L 112.843 231.435 L 113.427 229.090 L 114.025 226.782 L 114.635 224.510 L 115.260 222.274 L 115.898 220.071 L 116.549 217.903 L 117.214 215.767 L 117.893 213.662 L 118.586 211.589 L 119.293 209.546 L 120.013 207.533 L 120.748 205.548 L 121.497 203.592 L 122.259 201.664 L 123.036 199.762 L 123.827 197.888 L 124.632 196.039 L 125.452 194.217 L 126.286 192.419 L 127.135 190.646 L 127.998 188.897 L 128.876 187.172 L 129.768 185.471 L 130.676 183.793 L 131.598 182.137 L 132.535 180.504 L 133.487 178.892 L 134.455 177.303 L 135.438 175.734 L 136.436 174.187 L 137.450 172.661 L 138.479 171.155 L 139.524 169.669 L 140.585 168.204 L 141.662 166.758 L 142.754 165.331 L 143.863 163.924 L 144.988 162.536 L 146.130 161.166 L 147.288 159.815 L 148.463 158.483 L 149.655 157.169 L 150.864 155.872 L 152.090 154.594 L 153.333 153.333 L 154.594 152.090 L 155.872 150.864 L 157.169 149.655 L 158.483 148.463 L 159.815 147.288 L 161.166 146.130 L 162.536 144.988 L 163.924 143.863 L 165.331 142.754 L 166.758 141.662 L 168.204 140.585 L 169.669 139.524 L 171.155 138.479 L 172.661 137.450 L 174.187 136.436 L 175.734 135.438 L 177.303 134.455 L 178.892 133.487 L 180.504 132.535 L 182.137 131.598 L 183.793 130.676 L 185.471 129.768 L 187.172 128.876 L 188.897 127.998 L 190.646 127.135 L 192.419 126.286 L 194.217 125.452 L 196.039 124.632 L 197.888 123.827 L 199.762 123.036 L 201.664 122.259 L 203.592 121.497 L 205.548 120.748 L 207.533 120.013 L 209.546 119.293 L 211.589 118.586 L 213.662 117.893 L 215.767 117.214 L 217.903 116.549 L 220.071 115.898 L 222.274 115.260 L 224.510 114.635 L 226.782 114.025 L 229.090 113.427 L 231.435 112.843 L 233.819 112.273 L 236.242 111.716 L 238.707 111.172 L 241.213 110.642 L 243.763 110.124 L 246.359 109.621 L 249.001 109.130 L 251.692 108.652 L 254.433 108.188 L 257.227 107.736 L 260.075 107.298 L 262.980 106.872 L 265.945 106.460 L 268.972 106.060 L 272.064 105.674 L 275.224 105.300 L 278.457 104.940 L 281.765 104.592 L 285.153 104.257 L 288.626 103.935 L 292.189 103.625 L 295.848 103.329 L 299.609 103.045 L 303.479 102.774 L 307.466 102.515 L 311.580 102.270 L 315.831 102.037 L 320.231 101.816 L 324.794 101.609 L 329.536 101.414 L 334.477 101.231 L 339.638 101.061 L 345.048 100.904 L 350.740 100.760 L 356.756 100.628 L 363.148 100.508 L 369.986 100.402 L 377.362 100.308 L 385.405 100.226 L 394.302 100.157 L 404.347 100.100 L 416.046 100.056 L 430.410 100.025 L 450.165 100.006 L 512.000 100.000 L 573.835 100.006 L 593.590 100.025 L 607.954 100.056 L 619.653 100.100 L 629.698 100.157 L 638.595 100.226 L 646.638 100.308 L 654.014 100.402 L 660.852 100.508 L 667.244 100.628 L 673.260 100.760 L 678.952 100.904 L 684.362 101.061 L 689.523 101.231 L 694.464 101.414 L 699.206 101.609 L 703.769 101.816 L 708.169 102.037 L 712.420 102.270 L 716.534 102.515 L 720.521 102.774 L 724.391 103.045 L 728.152 103.329 L 731.811 103.625 L 735.374 103.935 L 738.847 104.257 L 742.235 104.592 L 745.543 104.940 L 748.776 105.300 L 751.936 105.674 L 755.028 106.060 L 758.055 106.460 L 761.020 106.872 L 763.925 107.298 L 766.773 107.736 L 769.567 108.188 L 772.308 108.652 L 774.999 109.130 L 777.641 109.621 L 780.237 110.124 L 782.787 110.642 L 785.293 111.172 L 787.758 111.716 L 790.181 112.273 L 792.565 112.843 L 794.910 113.427 L 797.218 114.025 L 799.490 114.635 L 801.726 115.260 L 803.929 115.898 L 806.097 116.549 L 808.233 117.214 L 810.338 117.893 L 812.411 118.586 L 814.454 119.293 L 816.467 120.013 L 818.452 120.748 L 820.408 121.497 L 822.336 122.259 L 824.238 123.036 L 826.112 123.827 L 827.961 124.632 L 829.783 125.452 L 831.581 126.286 L 833.354 127.135 L 835.103 127.998 L 836.828 128.876 L 838.529 129.768 L 840.207 130.676 L 841.863 131.598 L 843.496 132.535 L 845.108 133.487 L 846.697 134.455 L 848.266 135.438 L 849.813 136.436 L 851.339 137.450 L 852.845 138.479 L 854.331 139.524 L 855.796 140.585 L 857.242 141.662 L 858.669 142.754 L 860.076 143.863 L 861.464 144.988 L 862.834 146.130 L 864.185 147.288 L 865.517 148.463 L 866.831 149.655 L 868.128 150.864 L 869.406 152.090 L 870.667 153.333 L 871.910 154.594 L 873.136 155.872 L 874.345 157.169 L 875.537 158.483 L 876.712 159.815 L 877.870 161.166 L 879.012 162.536 L 880.137 163.924 L 881.246 165.331 L 882.338 166.758 L 883.415 168.204 L 884.476 169.669 L 885.521 171.155 L 886.550 172.661 L 887.564 174.187 L 888.562 175.734 L 889.545 177.303 L 890.513 178.892 L 891.465 180.504 L 892.402 182.137 L 893.324 183.793 L 894.232 185.471 L 895.124 187.172 L 896.002 188.897 L 896.865 190.646 L 897.714 192.419 L 898.548 194.217 L 899.368 196.039 L 900.173 197.888 L 900.964 199.762 L 901.741 201.664 L 902.503 203.592 L 903.252 205.548 L 903.987 207.533 L 904.707 209.546 L 905.414 211.589 L 906.107 213.662 L 906.786 215.767 L 907.451 217.903 L 908.102 220.071 L 908.740 222.274 L 909.365 224.510 L 909.975 226.782 L 910.573 229.090 L 911.157 231.435 L 911.727 233.819 L 912.284 236.242 L 912.828 238.707 L 913.358 241.213 L 913.876 243.763 L 914.379 246.359 L 914.870 249.001 L 915.348 251.692 L 915.812 254.433 L 916.264 257.227 L 916.702 260.075 L 917.128 262.980 L 917.540 265.945 L 917.940 268.972 L 918.326 272.064 L 918.700 275.224 L 919.060 278.457 L 919.408 281.765 L 919.743 285.153 L 920.065 288.626 L 920.375 292.189 L 920.671 295.848 L 920.955 299.609 L 921.226 303.479 L 921.485 307.466 L 921.730 311.580 L 921.963 315.831 L 922.184 320.231 L 922.391 324.794 L 922.586 329.536 L 922.769 334.477 L 922.939 339.638 L 923.096 345.048 L 923.240 350.740 L 923.372 356.756 L 923.492 363.148 L 923.598 369.986 L 923.692 377.362 L 923.774 385.405 L 923.843 394.302 L 923.900 404.347 L 923.944 416.046 L 923.975 430.410 L 923.994 450.165 Z" fill="#000000"/>
  <!-- Lucide arrow-left-right glyph, white, stroked as Lucide renders it -->
  <g transform="translate(182.000 182.000) scale(27.5)"
     fill="none" stroke="#FFFFFF" stroke-width="2"
     stroke-linecap="round" stroke-linejoin="round">
    <path d="M8 3 4 7l4 4"/>
    <path d="M4 7h16"/>
    <path d="m16 21 4-4-4-4"/>
    <path d="M20 17H4"/>
  </g>
</svg>
